<svg xmlns="http://www.w3.org/2000/svg" viewBox="-32 -32 1088 1088" width="64" height="64" fill="#0a0a0a"><g transform="translate(0, 960) scale(1, -1)"><path d="M512 849.624h0.445c88.97-0.101 161.067-72.198 161.169-161.159v-512.455c-0.101-88.97-72.198-161.067-161.159-161.169h-0.455c-88.97 0.101-161.067 72.198-161.169 161.159v512.455c0.101 88.97 72.198 161.067 161.159 161.169h0.010zM512.445 81.624c52.108 0.051 94.335 42.278 94.386 94.381v512.45c-0.051 52.108-42.278 94.335-94.381 94.386h-0.45c-52.108-0.051-94.335-42.278-94.386-94.381v-512.45c0.051-52.108 42.278-94.335 94.381-94.386h0.005zM655.182 274.403l-29.919 59.704 152.086 76.088v44.522l-152.042 75.687 29.785 59.748 188.995-94.253v-126.753zM369.308 274.358l-189.44 94.698v126.842l189.663 94.253 29.562-59.748-152.442-75.687v-44.522l152.487-76.266zM1024 399.064h-213.259v66.783h213.259zM213.259 399.064h-213.259v66.783h213.259z"/></g></svg>